0
SECTION
2
ENTITIES
0
INSERT
8
FP-SPRINKLER
2
SPRINKLER
10
0
20
500
0
INSERT
8
FP-SPRINKLER
2
SPRINKLER
10
1000
20
500
0
INSERT
8
FP-SPRINKLER
2
SPRINKLER
10
2000
20
500
0
INSERT
8
FP-SPRINKLER
2
SPRINKLER
10
3000
20
500
0
INSERT
8
FP-SPRINKLER
2
SPRINKLER
10
4000
20
500
0
INSERT
8
FP-SPRINKLER
2
SPRINKLER
10
5000
20
500
0
INSERT
8
FP-SPRINKLER
2
SPRINKLER
10
6000
20
500
0
INSERT
8
FP-SPRINKLER
2
SPRINKLER
10
7000
20
500
0
INSERT
8
FP-SPRINKLER
2
SPRINKLER
10
8000
20
500
0
INSERT
8
FP-SPRINKLER
2
SPRINKLER
10
9000
20
500
0
INSERT
8
FP-DETECTORS
2
SMOKE_DET
10
0
20
3000
0
INSERT
8
FP-DETECTORS
2
SMOKE_DET
10
1500
20
3000
0
INSERT
8
FP-DETECTORS
2
SMOKE_DET
10
3000
20
3000
0
INSERT
8
FP-DETECTORS
2
SMOKE_DET
10
4500
20
3000
0
INSERT
8
FP-DETECTORS
2
SMOKE_DET
10
6000
20
3000
0
INSERT
8
FP-EXTINGUISHER
2
EXT_CO2
10
0
20
100
0
INSERT
8
FP-EXTINGUISHER
2
EXT_CO2
10
800
20
100
0
LWPOLYLINE
8
FP-PIPE-2
90
3
10
0
20
0
10
12000
20
0
10
12000
20
8000
0
LINE
8
FP-PIPE-4
10
0
20
0
11
5000
21
0
0
ENDSEC
0
EOF
